<?xml version="1.0" encoding="UTF-8" standalone="no"?>
<!-- Created with Inkscape (http://www.inkscape.org/) -->

<svg
   xmlns:dc="http://purl.org/dc/elements/1.1/"
   xmlns:cc="http://creativecommons.org/ns#"
   xmlns:rdf="http://www.w3.org/1999/02/22-rdf-syntax-ns#"
   xmlns:svg="http://www.w3.org/2000/svg"
   xmlns="http://www.w3.org/2000/svg"
   xmlns:xlink="http://www.w3.org/1999/xlink"
   xmlns:sodipodi="http://sodipodi.sourceforge.net/DTD/sodipodi-0.dtd"
   xmlns:inkscape="http://www.inkscape.org/namespaces/inkscape"
   width="41.729752"
   height="45.997253"
   viewBox="0 0 41.729752 45.997253"
   version="1.1"
   id="SVGRoot"
   inkscape:version="0.92.2 (5c3e80d, 2017-08-06)"
   sodipodi:docname="commerce.svg">
  <sodipodi:namedview
     id="base"
     pagecolor="#ffffff"
     bordercolor="#666666"
     borderopacity="1.0"
     inkscape:pageopacity="0.0"
     inkscape:pageshadow="2"
     inkscape:zoom="5.6568542"
     inkscape:cx="-38.902982"
     inkscape:cy="23.460051"
     inkscape:document-units="px"
     inkscape:current-layer="layer1"
     showgrid="false"
     inkscape:window-width="2400"
     inkscape:window-height="1271"
     inkscape:window-x="-9"
     inkscape:window-y="-9"
     inkscape:window-maximized="1"
     inkscape:grid-bbox="true"
     showguides="false" />
  <defs
     id="defs4517">
    <linearGradient
       inkscape:collect="always"
       id="linearGradient5612">
      <stop
         style="stop-color:#f7f094;stop-opacity:1"
         offset="0"
         id="stop5608" />
      <stop
         style="stop-color:#d8cb11;stop-opacity:0.98039216"
         offset="1"
         id="stop5610" />
    </linearGradient>
    <linearGradient
       inkscape:collect="always"
       id="linearGradient5084">
      <stop
         style="stop-color:#1d1616;stop-opacity:1"
         offset="0"
         id="stop5080" />
      <stop
         style="stop-color:#9c907b;stop-opacity:1"
         offset="1"
         id="stop5082" />
    </linearGradient>
    <radialGradient
       inkscape:collect="always"
       xlink:href="#linearGradient5084"
       id="radialGradient5096"
       cx="27.134245"
       cy="34.609657"
       fx="27.134245"
       fy="34.609657"
       r="17.239874"
       gradientTransform="matrix(-0.9429506,1.3889367,-0.58039612,-0.39403154,75.182809,6.997937)"
       gradientUnits="userSpaceOnUse" />
    <radialGradient
       inkscape:collect="always"
       xlink:href="#linearGradient5612"
       id="radialGradient5622"
       cx="46.5"
       cy="48.75"
       fx="46.5"
       fy="48.75"
       r="8.5625"
       gradientUnits="userSpaceOnUse" />
    <radialGradient
       inkscape:collect="always"
       xlink:href="#linearGradient5612"
       id="radialGradient5624"
       cx="28.875"
       cy="43"
       fx="28.875"
       fy="43"
       r="8.5625"
       gradientUnits="userSpaceOnUse" />
    <radialGradient
       inkscape:collect="always"
       xlink:href="#linearGradient5612"
       id="radialGradient5614-4"
       cx="34.9375"
       cy="40.0625"
       fx="34.9375"
       fy="40.0625"
       r="8.5625"
       gradientUnits="userSpaceOnUse"
       gradientTransform="matrix(1.4805898,-0.22312276,0.21365148,1.4177405,-22.597964,-5.1308424)" />
  </defs>
  <metadata
     id="metadata4520">
    <rdf:RDF>
      <cc:Work
         rdf:about="">
        <dc:format>image/svg+xml</dc:format>
        <dc:type
           rdf:resource="http://purl.org/dc/dcmitype/StillImage" />
        <dc:title></dc:title>
      </cc:Work>
    </rdf:RDF>
  </metadata>
  <g
     id="layer1"
     inkscape:groupmode="layer"
     inkscape:label="Calque 1"
     transform="translate(-8.644371,-9.8802488)">
    <path
       style="fill:url(#radialGradient5096);fill-opacity:1;fill-rule:evenodd;stroke:none;stroke-width:1.21026838px;stroke-linecap:butt;stroke-linejoin:miter;stroke-opacity:1"
       d="m 32.750652,45.287614 c 1.55683,0.504024 -0.290014,2.067432 0,2.647462 0.658119,1.316236 3.743519,2.969313 1.361552,4.160297 -0.814255,0.407128 -1.121184,-1.058985 -1.512835,-1.058985 -3.791276,0 -2.217034,-2.653317 -4.311581,-3.176954 -0.739026,-0.184756 -2.688956,0.268419 -3.101313,0.680776 -0.406786,0.406786 -2.350185,-1.215559 -2.57182,-1.437194 -0.159311,-0.159311 -5.682568,1.446629 -6.126984,1.891045 -1.749307,1.749307 -1.501827,4.981348 -1.966686,5.446207 -0.974905,0.974905 -2.693528,0.878126 -3.252596,1.437194 -0.01005,0.01004 0.680776,-1.83053 0.680776,-3.706447 0,-1.770482 0.538234,-4.102138 1.210268,-5.446208 0.211046,-0.42209 5.580917,-3.571738 4.916715,-4.235939 -1.20894,-1.208941 -2.13395,-2.882377 -4.084655,-3.85773 -0.579401,-0.289701 -2.326757,0.320705 -2.647462,0 -0.591291,-0.591291 -1.537339,-1.600729 -2.269254,-1.966686 -0.9047551,-0.452378 -0.16224,-3.24164 0.226926,-3.630805 0.292955,-0.292956 2.68164,1.471371 2.874387,1.664119 0.248695,0.248694 2.208303,-0.0074 2.647462,-0.226926 0.618712,-0.309356 1.292875,0.715115 1.966686,0.378209 1.957431,-0.978716 2.825918,-4.490036 4.387223,-6.051342 2.261245,-2.261245 6.08284,-3.908083 6.959043,-7.412893 0.817062,-3.268248 -6.986124,-0.853541 -3.85773,-7.110327 0.408277,-0.816552 -1.528166,-1.542992 -0.226926,-2.193611 1.637244,-0.818622 2.78751,3.317001 3.40388,3.933372 0.175594,0.175594 0.458664,-0.191512 0.680776,-0.302567 0.654126,-0.327063 1.434819,-0.170787 2.11797,0 1.194112,0.298528 1.367677,2.073809 2.723104,2.344895 0.642831,0.128566 2.470965,0.756417 1.815402,0.756417 -0.09662,0 0.216218,-0.486663 0.226925,-0.529492 0.269229,-1.076915 0.771635,-2.445898 1.437194,-3.555163 0.928822,-1.548036 2.635851,-2.441015 2.700336,-2.505499 0.812763,-0.812763 1.787771,-0.806186 2.510771,-1.529186 0.292241,-0.292241 1.473059,-1.033892 1.757256,-0.749694 0.829712,2.860962 1.73198,0.636127 2.416183,3.455222 0.185278,0.763392 0.248514,3.567836 0.07068,4.279186 -0.413039,1.652156 -0.883583,3.355642 -1.588478,4.765431 -0.707864,1.415729 -3.036611,2.139852 -3.630805,3.328238 -1.273126,2.546253 5.491793,3.275388 6.353909,3.706447 0.576214,0.288107 1.072411,1.042721 1.664119,1.437194 0.317465,0.211642 2.038559,2.348664 1.588478,2.798746 -1.367906,1.367905 -7.659581,-3.394 -9.757789,-2.344895 -1.895543,0.94777 -1.911861,4.655781 -2.496179,5.824416 -0.378453,0.756907 -1.638448,0.932001 -2.042328,1.739761 -0.311917,0.623836 -0.217982,2.411594 -0.680775,2.874387 -0.881501,0.8815 -2.103942,2.543764 -2.571821,3.479522 z"
       id="path5078"
       inkscape:connector-curvature="0"
       sodipodi:nodetypes="ccssssssscsccssscccssssssccsscscscssssscccscsc" />
    <path
       style="fill:#f9f9f9;fill-opacity:1;fill-rule:evenodd;stroke:none;stroke-width:1px;stroke-linecap:butt;stroke-linejoin:miter;stroke-opacity:1"
       d="m 37.1673,16.336583 0.243068,1.016466 1.21534,0.419845 c 0,0 -0.06629,-0.662913 -0.110485,-0.773398 -0.0442,-0.110485 -0.08839,-0.15468 -0.132583,-0.243068 -0.04419,-0.08839 -0.68501,-0.37565 -0.68501,-0.37565 z"
       id="path5540"
       inkscape:connector-curvature="0" />
    <path
       style="fill:#f9f9f9;fill-opacity:1;fill-rule:evenodd;stroke:none;stroke-width:1px;stroke-linecap:butt;stroke-linejoin:miter;stroke-opacity:1"
       d="m 41.387844,18.999283 0.243068,1.016466 1.21534,0.419845 c 0,0 -0.06629,-0.662913 -0.110485,-0.773398 -0.0442,-0.110485 -0.08839,-0.15468 -0.132583,-0.243068 -0.04419,-0.08839 -0.68501,-0.37565 -0.68501,-0.37565 z"
       id="path5540-3"
       inkscape:connector-curvature="0" />
    <path
       style="fill:#3d3d3d;fill-opacity:1;fill-rule:evenodd;stroke:none;stroke-width:1px;stroke-linecap:butt;stroke-linejoin:miter;stroke-opacity:1"
       d="m 42.375,12 c 0,0 -0.75,0.1875 -0.875,0.34375 C 41.375,12.5 41,12.75 41.03125,13 c 0.03125,0.25 0.625,0.875 0.96875,0.96875 0.34375,0.09375 1.15625,0.34375 1.375,0.3125 0.21875,-0.03125 0.4375,-0.625 0.375,-0.9375 -0.0625,-0.3125 -0.03125,-0.28125 -0.125,-0.4375 -0.09375,-0.15625 -0.40625,-0.5625 -0.40625,-0.5625"
       id="path5557"
       inkscape:connector-curvature="0" />
    <ellipse
       style="opacity:1;fill:#3d3d3d;fill-opacity:1;fill-rule:nonzero;stroke:none;stroke-width:104.5606308;stroke-linecap:round;stroke-linejoin:round;stroke-miterlimit:4;stroke-dasharray:none;stroke-dashoffset:0;stroke-opacity:1;paint-order:normal"
       id="path5559"
       cx="42.097656"
       cy="12.828125"
       rx="0.40234375"
       ry="0.359375" />
    <circle
       style="opacity:1;fill:#c4be71;fill-opacity:1;fill-rule:nonzero;stroke:none;stroke-width:48.55866623;stroke-linecap:round;stroke-linejoin:round;stroke-miterlimit:4;stroke-dasharray:none;stroke-dashoffset:0;stroke-opacity:1;paint-order:normal"
       id="path5576"
       cx="40.25"
       cy="42"
       r="8.5625" />
    <circle
       style="opacity:1;fill:url(#radialGradient5614-4);fill-opacity:1;fill-rule:nonzero;stroke:none;stroke-width:43.77368927;stroke-linecap:round;stroke-linejoin:round;stroke-miterlimit:4;stroke-dasharray:none;stroke-dashoffset:0;stroke-opacity:1;paint-order:normal"
       id="path5576-3"
       cx="40.28125"
       cy="41.84375"
       r="7.71875" />
    <path
       style="fill:#cfc86e;fill-opacity:1;fill-rule:evenodd;stroke:none;stroke-width:1px;stroke-linecap:butt;stroke-linejoin:miter;stroke-opacity:1"
       d="m 42.96875,36.53125 c 0.28125,0.65625 0.875,3.125 0.875,3.125 l 0.0625,0.75 1.5,2.4375 -1.59375,0.25 0.125,1.375 0.09375,2.71875 -2.78125,0.90625 -3.96875,-1.8125 -1.25,-2 0.1875,-5.78125 c 0,0 2.0625,-1.75 2.1875,-1.84375 0.125,-0.09375 2.75,-1.1875 2.75,-1.1875 z"
       id="path5650"
       inkscape:connector-curvature="0" />
  </g>
</svg>
